<svg xmlns="http://www.w3.org/2000/svg" viewBox="0 0 100 100">
  <!-- Top half (red) -->
  <path d="M 50 5 A 45 45 0 0 1 95 50 L 65 50 A 15 15 0 0 0 35 50 L 5 50 A 45 45 0 0 1 50 5" fill="#EE1515"/>

  <!-- Bottom half (white) -->
  <path d="M 50 95 A 45 45 0 0 1 5 50 L 35 50 A 15 15 0 0 0 65 50 L 95 50 A 45 45 0 0 1 50 95" fill="#FFFFFF"/>

  <!-- Center line -->
  <rect x="5" y="47" width="90" height="6" fill="#1a1a2e"/>

  <!-- Center button outer -->
  <circle cx="50" cy="50" r="15" fill="#FFFFFF" stroke="#1a1a2e" stroke-width="4"/>

  <!-- Center button inner -->
  <circle cx="50" cy="50" r="8" fill="#FFFFFF" stroke="#1a1a2e" stroke-width="3"/>

  <!-- Outer ring -->
  <circle cx="50" cy="50" r="47" fill="none" stroke="#1a1a2e" stroke-width="4"/>
</svg>
